<svg xmlns="http://www.w3.org/2000/svg" width="1600" height="900" viewBox="0 0 1600 900" role="img" aria-labelledby="title desc">
  <title id="title">Pixel Phone operations visual</title>
  <desc id="desc">A Pixel device operations overview with orchestrator modules, workloads, observability, and public screenshots.</desc>
  <rect width="1600" height="900" fill="#0b1120"/>
  <rect x="86" y="76" width="1428" height="748" rx="36" fill="#111827" stroke="#334155" stroke-width="3"/>
  <text x="130" y="156" fill="#f8fafc" font-family="Arial, Helvetica, sans-serif" font-size="58" font-weight="700">Pixel Phone</text>
  <text x="132" y="206" fill="#94a3b8" font-family="Arial, Helvetica, sans-serif" font-size="28">Rooted Pixel operations, orchestrator modules, and safe public evidence</text>

  <rect x="166" y="270" width="270" height="470" rx="46" fill="#020617" stroke="#64748b" stroke-width="5"/>
  <rect x="194" y="328" width="214" height="338" rx="24" fill="#172033"/>
  <circle cx="302" cy="702" r="18" fill="#334155"/>
  <text x="230" y="390" fill="#e2e8f0" font-family="Arial, Helvetica, sans-serif" font-size="25" font-weight="700">Orchestrator</text>
  <rect x="230" y="430" width="146" height="34" rx="10" fill="#22c55e"/>
  <rect x="230" y="486" width="146" height="34" rx="10" fill="#38bdf8"/>
  <rect x="230" y="542" width="146" height="34" rx="10" fill="#a78bfa"/>

  <path d="M470 500 H596" stroke="#38bdf8" stroke-width="8" stroke-linecap="round"/>
  <path d="M576 476 L614 500 L576 524 Z" fill="#38bdf8"/>

  <rect x="636" y="286" width="318" height="398" rx="28" fill="#0f766e" stroke="#5eead4" stroke-width="3"/>
  <text x="688" y="350" fill="#ecfeff" font-family="Arial, Helvetica, sans-serif" font-size="32" font-weight="700">Modules</text>
  <text x="688" y="402" fill="#ccfbf1" font-family="Arial, Helvetica, sans-serif" font-size="24">dns</text>
  <text x="688" y="444" fill="#ccfbf1" font-family="Arial, Helvetica, sans-serif" font-size="24">ssh</text>
  <text x="688" y="486" fill="#ccfbf1" font-family="Arial, Helvetica, sans-serif" font-size="24">vpn</text>
  <text x="688" y="528" fill="#ccfbf1" font-family="Arial, Helvetica, sans-serif" font-size="24">bots</text>
  <text x="688" y="570" fill="#ccfbf1" font-family="Arial, Helvetica, sans-serif" font-size="24">ticket screen</text>

  <path d="M986 500 H1096" stroke="#2dd4bf" stroke-width="8" stroke-linecap="round"/>
  <path d="M1076 476 L1114 500 L1076 524 Z" fill="#2dd4bf"/>

  <rect x="1138" y="274" width="280" height="420" rx="28" fill="#f8fafc"/>
  <text x="1180" y="338" fill="#111827" font-family="Arial, Helvetica, sans-serif" font-size="31" font-weight="700">Public view</text>
  <rect x="1180" y="384" width="196" height="42" rx="12" fill="#dbeafe"/>
  <rect x="1180" y="454" width="196" height="42" rx="12" fill="#dcfce7"/>
  <rect x="1180" y="524" width="196" height="42" rx="12" fill="#ede9fe"/>
  <text x="1180" y="632" fill="#475569" font-family="Arial, Helvetica, sans-serif" font-size="22">screenshots + docs</text>

  <text x="130" y="784" fill="#cbd5e1" font-family="Arial, Helvetica, sans-serif" font-size="24">device runtime -> modules -> workloads -> docs and evidence</text>
</svg>

